<?xml version="1.0" encoding="UTF-8"?>
<svg xmlns="http://www.w3.org/2000/svg" version="1.1" width="300" height="300" viewBox="0 0 300 300"><rect x="0" y="0" width="300" height="300" fill="#ffffff"/><g transform="scale(4.918)"><g transform="translate(0,0)"><path fill-rule="evenodd" d="M8 0L8 4L9 4L9 2L10 2L10 1L11 1L11 2L12 2L12 3L13 3L13 4L11 4L11 3L10 3L10 7L9 7L9 5L8 5L8 7L9 7L9 8L10 8L10 9L9 9L9 10L8 10L8 11L9 11L9 13L7 13L7 12L6 12L6 13L7 13L7 14L5 14L5 10L6 10L6 11L7 11L7 10L6 10L6 9L7 9L7 8L4 8L4 9L3 9L3 11L4 11L4 14L5 14L5 15L4 15L4 17L3 17L3 16L2 16L2 17L1 17L1 18L0 18L0 19L2 19L2 17L3 17L3 20L2 20L2 21L0 21L0 22L1 22L1 23L0 23L0 24L1 24L1 25L0 25L0 27L2 27L2 28L1 28L1 29L2 29L2 30L0 30L0 32L1 32L1 33L0 33L0 36L1 36L1 37L0 37L0 40L1 40L1 43L0 43L0 44L2 44L2 43L3 43L3 41L4 41L4 42L5 42L5 43L4 43L4 44L5 44L5 45L4 45L4 46L5 46L5 48L4 48L4 47L3 47L3 45L1 45L1 46L2 46L2 47L1 47L1 48L2 48L2 49L4 49L4 50L2 50L2 51L0 51L0 53L4 53L4 52L5 52L5 51L7 51L7 52L6 52L6 53L8 53L8 54L9 54L9 53L8 53L8 51L9 51L9 52L11 52L11 48L12 48L12 50L13 50L13 51L12 51L12 52L13 52L13 51L14 51L14 50L15 50L15 49L16 49L16 48L17 48L17 49L18 49L18 50L19 50L19 47L20 47L20 46L21 46L21 47L22 47L22 46L23 46L23 48L26 48L26 50L25 50L25 49L21 49L21 48L20 48L20 54L22 54L22 55L21 55L21 56L20 56L20 55L19 55L19 52L18 52L18 51L17 51L17 50L16 50L16 51L15 51L15 52L17 52L17 53L18 53L18 55L17 55L17 56L16 56L16 53L12 53L12 55L11 55L11 53L10 53L10 57L13 57L13 55L14 55L14 54L15 54L15 56L14 56L14 58L10 58L10 59L8 59L8 61L11 61L11 59L14 59L14 60L12 60L12 61L16 61L16 59L17 59L17 61L20 61L20 60L21 60L21 61L22 61L22 60L23 60L23 61L25 61L25 60L26 60L26 61L28 61L28 60L31 60L31 59L32 59L32 58L33 58L33 59L34 59L34 61L40 61L40 60L38 60L38 59L40 59L40 56L41 56L41 59L42 59L42 61L43 61L43 60L44 60L44 61L51 61L51 60L53 60L53 61L54 61L54 60L53 60L53 58L54 58L54 59L55 59L55 57L58 57L58 58L59 58L59 59L58 59L58 60L57 60L57 59L56 59L56 61L58 61L58 60L59 60L59 61L61 61L61 60L60 60L60 58L61 58L61 55L59 55L59 54L57 54L57 51L55 51L55 52L53 52L53 49L54 49L54 50L55 50L55 49L56 49L56 50L57 50L57 49L58 49L58 48L59 48L59 50L58 50L58 53L60 53L60 51L59 51L59 50L60 50L60 49L61 49L61 48L59 48L59 46L61 46L61 44L60 44L60 45L59 45L59 43L60 43L60 39L59 39L59 38L61 38L61 36L60 36L60 35L58 35L58 34L59 34L59 33L61 33L61 32L60 32L60 31L59 31L59 30L61 30L61 28L59 28L59 27L58 27L58 25L59 25L59 22L58 22L58 21L57 21L57 20L56 20L56 21L55 21L55 20L54 20L54 21L53 21L53 23L52 23L52 21L51 21L51 20L53 20L53 18L56 18L56 19L58 19L58 20L59 20L59 21L61 21L61 20L60 20L60 17L61 17L61 16L60 16L60 15L58 15L58 14L57 14L57 15L56 15L56 14L55 14L55 13L53 13L53 14L55 14L55 16L54 16L54 15L52 15L52 13L50 13L50 14L48 14L48 18L47 18L47 19L46 19L46 18L45 18L45 19L44 19L44 21L45 21L45 22L44 22L44 24L43 24L43 25L42 25L42 26L41 26L41 28L42 28L42 27L43 27L43 28L44 28L44 29L40 29L40 30L39 30L39 28L38 28L38 27L39 27L39 26L40 26L40 24L39 24L39 23L40 23L40 22L39 22L39 21L40 21L40 20L41 20L41 21L42 21L42 23L41 23L41 24L42 24L42 23L43 23L43 20L41 20L41 19L43 19L43 18L44 18L44 17L45 17L45 16L47 16L47 15L44 15L44 14L43 14L43 13L42 13L42 12L41 12L41 13L40 13L40 11L41 11L41 10L42 10L42 11L44 11L44 13L45 13L45 14L46 14L46 13L49 13L49 12L54 12L54 11L55 11L55 12L56 12L56 13L57 13L57 12L56 12L56 11L57 11L57 10L55 10L55 9L56 9L56 8L55 8L55 9L54 9L54 11L53 11L53 10L52 10L52 8L53 8L53 6L52 6L52 8L51 8L51 5L52 5L52 4L53 4L53 0L51 0L51 2L50 2L50 7L49 7L49 5L46 5L46 2L47 2L47 3L48 3L48 2L49 2L49 1L50 1L50 0L48 0L48 2L47 2L47 1L45 1L45 0L44 0L44 1L43 1L43 0L38 0L38 1L37 1L37 0L35 0L35 1L36 1L36 2L37 2L37 3L39 3L39 2L40 2L40 5L39 5L39 4L38 4L38 8L35 8L35 9L38 9L38 10L39 10L39 9L40 9L40 8L41 8L41 10L40 10L40 11L39 11L39 13L38 13L38 12L35 12L35 11L37 11L37 10L35 10L35 11L34 11L34 9L33 9L33 8L34 8L34 7L35 7L35 6L36 6L36 7L37 7L37 5L34 5L34 4L31 4L31 3L29 3L29 4L26 4L26 3L27 3L27 2L29 2L29 1L31 1L31 0L29 0L29 1L25 1L25 0L23 0L23 1L24 1L24 2L23 2L23 3L22 3L22 0L20 0L20 1L19 1L19 0L18 0L18 1L19 1L19 2L18 2L18 3L20 3L20 2L21 2L21 3L22 3L22 4L20 4L20 5L21 5L21 6L20 6L20 7L19 7L19 5L18 5L18 4L17 4L17 5L16 5L16 3L15 3L15 1L16 1L16 2L17 2L17 0L13 0L13 2L12 2L12 0L10 0L10 1L9 1L9 0ZM32 0L32 2L33 2L33 3L35 3L35 2L33 2L33 1L34 1L34 0ZM38 1L38 2L39 2L39 1ZM41 1L41 2L42 2L42 3L43 3L43 1ZM13 2L13 3L14 3L14 4L15 4L15 3L14 3L14 2ZM24 2L24 3L23 3L23 4L24 4L24 3L25 3L25 2ZM44 2L44 4L45 4L45 2ZM51 3L51 4L52 4L52 3ZM25 4L25 7L26 7L26 4ZM11 5L11 7L12 7L12 8L11 8L11 9L10 9L10 10L9 10L9 11L10 11L10 10L11 10L11 9L12 9L12 10L13 10L13 9L14 9L14 10L15 10L15 11L13 11L13 12L12 12L12 13L11 13L11 12L10 12L10 13L9 13L9 14L8 14L8 16L7 16L7 15L6 15L6 16L5 16L5 17L4 17L4 18L5 18L5 20L3 20L3 21L2 21L2 23L3 23L3 21L4 21L4 25L2 25L2 27L3 27L3 28L2 28L2 29L3 29L3 30L2 30L2 33L1 33L1 34L4 34L4 31L3 31L3 30L4 30L4 29L3 29L3 28L7 28L7 27L8 27L8 28L9 28L9 27L10 27L10 32L9 32L9 33L6 33L6 34L5 34L5 35L4 35L4 36L5 36L5 37L4 37L4 38L5 38L5 42L8 42L8 43L6 43L6 44L8 44L8 46L7 46L7 45L5 45L5 46L7 46L7 47L6 47L6 48L7 48L7 49L6 49L6 50L7 50L7 51L8 51L8 49L9 49L9 51L10 51L10 49L9 49L9 48L7 48L7 47L8 47L8 46L9 46L9 47L10 47L10 48L11 48L11 45L9 45L9 44L13 44L13 45L12 45L12 48L13 48L13 50L14 50L14 49L15 49L15 48L16 48L16 47L17 47L17 45L16 45L16 46L14 46L14 47L13 47L13 45L15 45L15 44L17 44L17 41L18 41L18 40L22 40L22 41L19 41L19 43L18 43L18 44L19 44L19 46L20 46L20 44L19 44L19 43L20 43L20 42L21 42L21 45L23 45L23 44L22 44L22 43L24 43L24 44L25 44L25 45L26 45L26 43L27 43L27 44L28 44L28 45L27 45L27 46L25 46L25 47L26 47L26 48L27 48L27 46L28 46L28 45L29 45L29 44L31 44L31 46L30 46L30 47L28 47L28 49L29 49L29 50L28 50L28 51L29 51L29 50L30 50L30 51L31 51L31 49L29 49L29 48L31 48L31 46L32 46L32 48L34 48L34 49L33 49L33 51L32 51L32 52L33 52L33 53L34 53L34 54L33 54L33 55L35 55L35 54L37 54L37 55L38 55L38 57L39 57L39 56L40 56L40 55L39 55L39 54L38 54L38 53L39 53L39 52L40 52L40 53L42 53L42 52L43 52L43 54L41 54L41 55L42 55L42 57L43 57L43 59L44 59L44 60L46 60L46 58L48 58L48 59L47 59L47 60L49 60L49 57L50 57L50 56L51 56L51 59L50 59L50 60L51 60L51 59L52 59L52 58L53 58L53 57L52 57L52 54L51 54L51 55L50 55L50 53L52 53L52 51L50 51L50 48L51 48L51 49L52 49L52 48L54 48L54 47L55 47L55 48L56 48L56 49L57 49L57 48L58 48L58 43L59 43L59 42L58 42L58 43L55 43L55 42L56 42L56 41L55 41L55 40L58 40L58 39L57 39L57 38L56 38L56 35L55 35L55 34L56 34L56 33L52 33L52 32L51 32L51 31L52 31L52 27L54 27L54 25L52 25L52 24L51 24L51 22L50 22L50 20L51 20L51 19L50 19L50 20L49 20L49 18L48 18L48 19L47 19L47 20L49 20L49 21L46 21L46 20L45 20L45 21L46 21L46 23L45 23L45 24L46 24L46 26L47 26L47 27L48 27L48 28L49 28L49 27L50 27L50 29L49 29L49 31L50 31L50 32L49 32L49 34L50 34L50 36L49 36L49 35L48 35L48 36L49 36L49 38L50 38L50 39L51 39L51 40L50 40L50 41L52 41L52 43L49 43L49 41L48 41L48 42L47 42L47 41L46 41L46 40L48 40L48 39L47 39L47 38L48 38L48 37L47 37L47 34L48 34L48 31L47 31L47 30L48 30L48 29L46 29L46 30L44 30L44 32L42 32L42 33L41 33L41 31L40 31L40 33L39 33L39 31L37 31L37 30L38 30L38 28L37 28L37 29L36 29L36 30L35 30L35 29L34 29L34 28L36 28L36 26L37 26L37 27L38 27L38 24L37 24L37 23L38 23L38 21L39 21L39 20L38 20L38 16L39 16L39 17L40 17L40 18L39 18L39 19L40 19L40 18L41 18L41 15L40 15L40 16L39 16L39 14L40 14L40 13L39 13L39 14L38 14L38 13L37 13L37 14L36 14L36 13L34 13L34 11L33 11L33 10L32 10L32 11L31 11L31 10L30 10L30 11L29 11L29 12L32 12L32 13L30 13L30 14L32 14L32 15L29 15L29 14L23 14L23 12L25 12L25 13L26 13L26 12L28 12L28 10L29 10L29 9L28 9L28 10L27 10L27 9L26 9L26 8L25 8L25 9L26 9L26 10L25 10L25 11L23 11L23 12L22 12L22 14L23 14L23 15L21 15L21 14L20 14L20 13L21 13L21 12L20 12L20 13L19 13L19 14L18 14L18 13L17 13L17 11L20 11L20 10L21 10L21 11L22 11L22 10L23 10L23 9L24 9L24 5L23 5L23 7L22 7L22 6L21 6L21 7L20 7L20 8L21 8L21 7L22 7L22 9L19 9L19 10L17 10L17 9L18 9L18 8L19 8L19 7L18 7L18 5L17 5L17 8L16 8L16 5L15 5L15 7L14 7L14 5ZM27 5L27 8L28 8L28 5ZM29 5L29 8L32 8L32 5ZM33 5L33 7L34 7L34 5ZM44 5L44 6L43 6L43 7L42 7L42 6L41 6L41 7L42 7L42 8L43 8L43 10L45 10L45 9L44 9L44 8L43 8L43 7L44 7L44 6L45 6L45 7L46 7L46 5ZM12 6L12 7L13 7L13 8L14 8L14 9L15 9L15 10L16 10L16 8L14 8L14 7L13 7L13 6ZM30 6L30 7L31 7L31 6ZM39 6L39 8L38 8L38 9L39 9L39 8L40 8L40 6ZM47 6L47 7L48 7L48 6ZM0 8L0 9L2 9L2 8ZM46 8L46 11L45 11L45 12L46 12L46 11L47 11L47 10L49 10L49 9L47 9L47 8ZM50 8L50 9L51 9L51 8ZM57 8L57 9L59 9L59 10L58 10L58 12L60 12L60 11L59 11L59 10L60 10L60 9L61 9L61 8ZM0 10L0 14L3 14L3 13L2 13L2 10ZM26 10L26 11L27 11L27 10ZM51 10L51 11L52 11L52 10ZM48 11L48 12L49 12L49 11ZM14 12L14 14L16 14L16 12ZM12 13L12 14L13 14L13 13ZM32 13L32 14L33 14L33 15L32 15L32 16L30 16L30 19L32 19L32 20L29 20L29 19L28 19L28 18L29 18L29 17L28 17L28 18L27 18L27 16L26 16L26 15L25 15L25 16L26 16L26 18L25 18L25 17L24 17L24 16L23 16L23 17L22 17L22 16L20 16L20 19L21 19L21 20L20 20L20 22L19 22L19 20L18 20L18 19L19 19L19 18L18 18L18 17L19 17L19 15L17 15L17 18L16 18L16 19L15 19L15 17L16 17L16 15L15 15L15 16L14 16L14 15L13 15L13 16L12 16L12 19L13 19L13 20L12 20L12 21L13 21L13 22L16 22L16 24L17 24L17 25L18 25L18 26L19 26L19 27L20 27L20 26L21 26L21 27L23 27L23 28L24 28L24 27L25 27L25 28L26 28L26 30L25 30L25 29L22 29L22 28L21 28L21 29L19 29L19 28L17 28L17 27L16 27L16 29L15 29L15 28L14 28L14 27L12 27L12 26L14 26L14 24L13 24L13 23L12 23L12 24L11 24L11 23L10 23L10 22L11 22L11 21L10 21L10 22L5 22L5 23L10 23L10 24L8 24L8 26L9 26L9 25L10 25L10 27L11 27L11 29L12 29L12 30L13 30L13 31L12 31L12 32L10 32L10 34L9 34L9 35L7 35L7 34L6 34L6 35L5 35L5 36L6 36L6 37L5 37L5 38L6 38L6 39L9 39L9 40L6 40L6 41L9 41L9 43L11 43L11 41L13 41L13 43L14 43L14 44L15 44L15 42L16 42L16 41L17 41L17 40L16 40L16 37L17 37L17 39L18 39L18 38L19 38L19 37L20 37L20 39L22 39L22 40L24 40L24 39L27 39L27 40L26 40L26 41L23 41L23 42L25 42L25 43L26 43L26 42L27 42L27 43L28 43L28 44L29 44L29 43L30 43L30 42L31 42L31 44L32 44L32 39L33 39L33 43L34 43L34 44L33 44L33 45L32 45L32 46L33 46L33 47L34 47L34 48L35 48L35 49L37 49L37 48L35 48L35 46L34 46L34 44L35 44L35 45L36 45L36 46L37 46L37 47L39 47L39 49L38 49L38 51L36 51L36 52L35 52L35 53L38 53L38 51L39 51L39 50L42 50L42 51L43 51L43 52L44 52L44 53L45 53L45 54L43 54L43 55L44 55L44 57L45 57L45 58L46 58L46 57L49 57L49 56L48 56L48 55L49 55L49 53L50 53L50 52L49 52L49 50L47 50L47 51L46 51L46 49L47 49L47 47L48 47L48 49L49 49L49 48L50 48L50 46L51 46L51 47L52 47L52 46L51 46L51 45L50 45L50 44L47 44L47 43L46 43L46 44L45 44L45 43L44 43L44 45L43 45L43 44L41 44L41 46L40 46L40 43L43 43L43 36L42 36L42 35L44 35L44 42L45 42L45 38L46 38L46 37L45 37L45 35L44 35L44 34L46 34L46 33L47 33L47 32L44 32L44 34L43 34L43 33L42 33L42 35L41 35L41 34L40 34L40 35L39 35L39 33L38 33L38 32L35 32L35 31L34 31L34 29L33 29L33 28L34 28L34 27L35 27L35 26L36 26L36 25L37 25L37 24L35 24L35 26L34 26L34 25L33 25L33 23L34 23L34 20L35 20L35 22L36 22L36 21L38 21L38 20L35 20L35 19L34 19L34 17L35 17L35 18L36 18L36 17L37 17L37 15L36 15L36 14L35 14L35 15L34 15L34 13ZM60 13L60 14L61 14L61 13ZM10 14L10 16L11 16L11 14ZM50 14L50 16L49 16L49 17L50 17L50 16L51 16L51 18L53 18L53 17L52 17L52 15L51 15L51 14ZM28 15L28 16L29 16L29 15ZM33 15L33 17L34 17L34 15ZM35 15L35 17L36 17L36 15ZM42 15L42 16L43 16L43 17L44 17L44 15ZM57 15L57 17L56 17L56 16L55 16L55 17L56 17L56 18L58 18L58 19L59 19L59 18L58 18L58 15ZM6 16L6 17L7 17L7 18L6 18L6 19L7 19L7 20L5 20L5 21L8 21L8 20L9 20L9 19L10 19L10 20L11 20L11 18L8 18L8 17L9 17L9 16L8 16L8 17L7 17L7 16ZM13 17L13 19L14 19L14 20L15 20L15 21L16 21L16 22L17 22L17 23L18 23L18 22L17 22L17 20L15 20L15 19L14 19L14 17ZM21 17L21 18L22 18L22 17ZM31 17L31 18L32 18L32 19L33 19L33 18L32 18L32 17ZM24 18L24 19L23 19L23 20L22 20L22 21L26 21L26 22L27 22L27 21L29 21L29 23L30 23L30 25L31 25L31 26L32 26L32 27L33 27L33 26L32 26L32 25L31 25L31 24L32 24L32 23L33 23L33 21L29 21L29 20L28 20L28 19L27 19L27 18L26 18L26 19L27 19L27 21L26 21L26 20L24 20L24 19L25 19L25 18ZM20 22L20 23L19 23L19 24L18 24L18 25L20 25L20 24L21 24L21 22ZM22 22L22 23L23 23L23 24L22 24L22 25L21 25L21 26L22 26L22 25L24 25L24 24L25 24L25 25L26 25L26 28L27 28L27 29L28 29L28 27L29 27L29 28L31 28L31 27L29 27L29 25L28 25L28 23L27 23L27 25L26 25L26 23L23 23L23 22ZM30 22L30 23L32 23L32 22ZM48 22L48 23L50 23L50 22ZM55 22L55 23L54 23L54 24L56 24L56 22ZM57 23L57 24L58 24L58 23ZM6 24L6 25L7 25L7 24ZM10 24L10 25L11 25L11 24ZM47 24L47 25L48 25L48 26L50 26L50 27L52 27L52 25L51 25L51 24ZM4 25L4 26L5 26L5 27L7 27L7 26L5 26L5 25ZM15 25L15 26L16 26L16 25ZM44 25L44 26L45 26L45 25ZM55 25L55 26L57 26L57 25ZM23 26L23 27L24 27L24 26ZM27 26L27 27L28 27L28 26ZM44 27L44 28L45 28L45 27ZM57 27L57 29L59 29L59 28L58 28L58 27ZM12 28L12 29L13 29L13 30L15 30L15 29L13 29L13 28ZM5 29L5 32L8 32L8 29ZM16 29L16 30L17 30L17 29ZM18 29L18 31L20 31L20 32L19 32L19 34L16 34L16 35L15 35L15 34L14 34L14 35L15 35L15 36L13 36L13 35L12 35L12 34L13 34L13 33L14 33L14 32L15 32L15 33L17 33L17 32L16 32L16 31L14 31L14 32L12 32L12 33L11 33L11 35L12 35L12 37L11 37L11 38L12 38L12 39L10 39L10 38L9 38L9 39L10 39L10 40L9 40L9 41L11 41L11 40L12 40L12 39L13 39L13 40L14 40L14 39L13 39L13 38L14 38L14 37L16 37L16 36L18 36L18 35L19 35L19 36L20 36L20 37L21 37L21 36L22 36L22 38L23 38L23 37L24 37L24 36L22 36L22 33L25 33L25 34L27 34L27 33L25 33L25 31L24 31L24 30L22 30L22 29L21 29L21 30L22 30L22 33L21 33L21 34L20 34L20 32L21 32L21 31L20 31L20 30L19 30L19 29ZM29 29L29 32L32 32L32 29ZM50 29L50 30L51 30L51 29ZM53 29L53 32L56 32L56 29ZM6 30L6 31L7 31L7 30ZM26 30L26 32L28 32L28 31L27 31L27 30ZM30 30L30 31L31 31L31 30ZM42 30L42 31L43 31L43 30ZM54 30L54 31L55 31L55 30ZM33 31L33 32L34 32L34 34L32 34L32 36L31 36L31 37L29 37L29 34L31 34L31 33L29 33L29 34L28 34L28 37L29 37L29 38L28 38L28 39L30 39L30 40L31 40L31 37L32 37L32 36L33 36L33 37L34 37L34 40L35 40L35 41L34 41L34 43L35 43L35 44L39 44L39 43L40 43L40 42L41 42L41 40L42 40L42 38L41 38L41 35L40 35L40 37L39 37L39 35L37 35L37 34L38 34L38 33L36 33L36 34L35 34L35 32L34 32L34 31ZM57 31L57 33L58 33L58 31ZM50 32L50 34L51 34L51 32ZM23 34L23 35L24 35L24 34ZM34 34L34 35L35 35L35 34ZM2 35L2 37L3 37L3 35ZM6 35L6 36L7 36L7 37L6 37L6 38L8 38L8 36L7 36L7 35ZM9 35L9 36L10 36L10 35ZM20 35L20 36L21 36L21 35ZM25 35L25 37L26 37L26 38L27 38L27 37L26 37L26 36L27 36L27 35ZM52 35L52 36L53 36L53 35ZM57 35L57 37L58 37L58 38L59 38L59 37L60 37L60 36L59 36L59 37L58 37L58 35ZM35 36L35 38L36 38L36 37L38 37L38 38L39 38L39 39L35 39L35 40L36 40L36 41L38 41L38 42L36 42L36 43L38 43L38 42L39 42L39 41L40 41L40 38L39 38L39 37L38 37L38 36ZM50 36L50 38L52 38L52 39L53 39L53 38L54 38L54 37L55 37L55 36L54 36L54 37L51 37L51 36ZM1 38L1 39L2 39L2 40L4 40L4 39L3 39L3 38ZM27 40L27 41L29 41L29 40ZM52 40L52 41L53 41L53 42L55 42L55 41L54 41L54 40ZM54 43L54 45L55 45L55 46L56 46L56 48L57 48L57 45L56 45L56 44L55 44L55 43ZM37 45L37 46L38 46L38 45ZM44 45L44 48L43 48L43 47L40 47L40 49L42 49L42 48L43 48L43 49L44 49L44 48L45 48L45 47L46 47L46 46L47 46L47 45L46 45L46 46L45 46L45 45ZM48 45L48 47L49 47L49 46L50 46L50 45ZM53 46L53 47L54 47L54 46ZM14 47L14 48L15 48L15 47ZM0 49L0 50L1 50L1 49ZM21 50L21 51L22 51L22 50ZM26 50L26 51L25 51L25 52L24 52L24 51L23 51L23 52L22 52L22 54L23 54L23 55L24 55L24 56L22 56L22 57L21 57L21 58L20 58L20 59L21 59L21 60L22 60L22 59L21 59L21 58L23 58L23 57L26 57L26 52L27 52L27 57L28 57L28 52L27 52L27 50ZM44 50L44 52L45 52L45 53L46 53L46 55L48 55L48 54L47 54L47 52L45 52L45 50ZM3 51L3 52L4 52L4 51ZM40 51L40 52L41 52L41 51ZM23 53L23 54L24 54L24 55L25 55L25 53ZM29 53L29 56L32 56L32 53ZM53 53L53 56L56 56L56 53ZM30 54L30 55L31 55L31 54ZM54 54L54 55L55 55L55 54ZM8 55L8 57L9 57L9 55ZM15 56L15 57L16 57L16 58L17 58L17 59L19 59L19 58L18 58L18 57L19 57L19 56L18 56L18 57L16 57L16 56ZM31 57L31 58L32 58L32 57ZM34 57L34 58L35 58L35 60L37 60L37 58L35 58L35 57ZM59 57L59 58L60 58L60 57ZM26 58L26 60L27 60L27 58ZM24 59L24 60L25 60L25 59ZM32 60L32 61L33 61L33 60ZM0 0L0 7L7 7L7 0ZM1 1L1 6L6 6L6 1ZM2 2L2 5L5 5L5 2ZM54 0L54 7L61 7L61 0ZM55 1L55 6L60 6L60 1ZM56 2L56 5L59 5L59 2ZM0 54L0 61L7 61L7 54ZM1 55L1 60L6 60L6 55ZM2 56L2 59L5 59L5 56Z" fill="#000000"/></g></g></svg>
